<?xml version='1.0' encoding='utf-8'?>
<svg xmlns="http://www.w3.org/2000/svg" enable-background="new 0 0 5000 3000" version="1.1" viewBox="0 0 5e3 3e3"> <style type="text/css"> .st0{fill:#F16523;} </style> <switch> <g> <path class="st0" d="m3455.7 1085.2c-3.78 1.86-7.46 3.5-11 4.9l-308.64 117.11-176.51 526.17-132.96 50.35 10.48-103.5 37.61-371.17-347.37 121.63-75.25 195.19-88.83 35.08 10.76-178.78c-101.36 31.15-239.31 60.47-354.51 73.41-41.71 4.69-80.43 7.23-113.37 6.93-95.23-0.87-216.12-20.37-314.36-66.55-26.29-12.36-48.9-25.41-65.27-39.81-96.18-75.81-122.77-196.33-88.26-290.24 32.28-87.87 92.79-143.53 122.23-166.56 7.09-31.88 15.75-64.65 26.02-98.52 6.47-21.32 13.56-43.07 21.29-65.33 163.31-425.64 600.83-606.68 892.57-600.65 291.18-6.02 727.56 174.31 891.61 598.16-10.27 2.46-19.89 5.35-28.46 8.59l-295.12 109.44-4.24-1.28c-93.15-214.42-311.36-364.89-565.68-364.89-339.02 0-613.85 267.36-613.85 597.17 0 82.55 17.21 161.17 48.33 232.68-9.04 0.29-18.24 0.45-27.59 0.45-67.64 0-128.91-8.65-187.24-26.44-56.66-17.29-96.21-41.04-122.19-66.35-64.34-63.14-51.04-236.35-51.04-236.35v-0.03c-29.15 31.7-56.09 84.62-53.48 157.4 1.57 43.44 21.95 88.62 63.64 127.6 33.77 31.58 81.52 59.1 144.56 78.33 97.48 29.73 188.01 31.97 264.8 27.34 32.86-1.98 63.19-5.23 90.49-8.11 57.31-6.05 125.87-15.81 226.13-57.94 20.46-8.59 40.69-17.86 62.84-28.91l-140.74-121.91 91.66-36.78 209.29 69.95c0.2-0.12 0.41-0.24 0.61-0.36 197.45-104.67 265.89-142 265.89-142l-342.84-231.4 138.04-53.74 504.66 152.38 16.54-6.14 298.77-110.8c7.31-2.79 16.25-5.36 26.19-7.54 54.63-11.91 139.93-11.51 157.65 33.87 24.3 50.88-56.39 129.73-113.86 157.95z"/> <path class="st0" d="m3273 1771.3c-110.88 195.4-316.07 455.96-502.66 680.33-101.91 122.55-200.58 237.05-269.99 317.85-69.41-80.8-168.08-195.31-269.99-317.85-186.58-224.36-391.78-484.93-502.66-680.33-40.75-68.59-75.02-132.72-102.76-194.33 19.35 6.56 38.15 12.05 55.21 16.55 75.43 19.96 157.58 31.76 225.38 32.38 1.95 0.01 3.91 0.03 5.89 0.03 47.6-0.01 103.51-4.96 161.84-13.15 62.57 58.49 137.84 104.2 221.41 132.8l14.67 4.81c59.56 18.76 123.13 28.88 189.12 28.88 97.33 0 189.36-22.03 271.11-61.27l-16.34 161.28 256.85-97.27 176.52-526.18 275.68-104.6c12.75 205.75-50.95 387.21-189.28 620.07z"/> </g> </switch> </svg>